<svg version="1.1" xmlns="http://www.w3.org/2000/svg" xmlns:xlink="http://www.w3.org/1999/xlink" width="500" height="500"><g data-paper-data="{&quot;description&quot;:&quot;Logo for Keiichi Adachi\n=======================\n\nThis logo was generated by MarkMaker at http://emblemmatic.org/markmaker/ and may be composed of elements designed by others.\n\nThe font is Expletus Sans Italic designed by Designtown and released under the OFL license via Google Fonts: https://www.google.com/fonts/specimen/Expletus%20Sans. The font includes this copyright statement: Copyright (c) 2009 by Designtown (jasper@designtown.nl). All rights reserved.\n\nMarkMaker uses semantic data from the Princeton University WordNet database http://wordnet.princeton.edu and font descriptions from Google Fonts https://www.google.com/fonts.&quot;}" fill="#33181d" fill-rule="nonzero" stroke="none" stroke-width="1" stroke-linecap="butt" stroke-linejoin="miter" stroke-miterlimit="10" stroke-dasharray="" stroke-dashoffset="0" font-family="none" font-weight="none" font-size="none" text-anchor="none" style="mix-blend-mode: normal"><g data-paper-data="{&quot;elementType&quot;:&quot;logo&quot;}"><g data-paper-data="{&quot;elementType&quot;:&quot;text&quot;}"><g data-paper-data="{&quot;baseline&quot;:74,&quot;elementType&quot;:&quot;row&quot;}"><g data-paper-data="{&quot;baselineProportion&quot;:0.9840425531914894,&quot;fontSize&quot;:100,&quot;baseline&quot;:74,&quot;elementType&quot;:&quot;word&quot;}"><path d="M67.76573,334.6397l10.57728,22.23283h-5.90479l-7.8046,-17.81707l-0.25673,-0.92423l-0.56481,0.92423l-4.72383,5.33999c-0.17115,-0.51346 -0.23961,-1.12105 -0.20538,-1.82278c0.03423,-0.70173 0.15404,-1.44625 0.35942,-2.23355c0.20538,-0.78731 0.51346,-1.57461 0.92423,-2.36192c0.41077,-0.78731 0.92423,-1.54038 1.54038,-2.25923l13.96612,-16.174h5.54537l-13.45266,15.09573M50,356.87253l4.5698,-37.32856h4.87787l-4.5698,37.32856z" data-paper-data="{&quot;elementType&quot;:&quot;letter&quot;,&quot;baseline&quot;:72.7,&quot;baselineProportion&quot;:1,&quot;fontSize&quot;:100}"></path><path d="M89.69048,319.54397h21.25725l-0.46211,3.69691h-16.37938l-3.69691,29.93473h17.14957l-0.41077,3.69691h-22.02745l4.5698,-37.32856M98.98411,335.51258c-1.2323,0 -2.23355,0.35086 -3.00374,1.05259c-0.77019,0.70173 -1.3949,1.54894 -1.87413,2.54163h12.68247l0.46211,-3.59422z" data-paper-data="{&quot;elementType&quot;:&quot;letter&quot;,&quot;baseline&quot;:72.7,&quot;baselineProportion&quot;:1,&quot;fontSize&quot;:100}"></path><path d="M120.65213,356.87253h-4.72383l4.5698,-37.32856h4.72383z" data-paper-data="{&quot;elementType&quot;:&quot;letter&quot;,&quot;baseline&quot;:72.7,&quot;baselineProportion&quot;:1,&quot;fontSize&quot;:100}"></path><path d="M135.69652,356.87253h-4.72383l4.5698,-37.32856h4.72383z" data-paper-data="{&quot;elementType&quot;:&quot;letter&quot;,&quot;baseline&quot;:72.7,&quot;baselineProportion&quot;:1,&quot;fontSize&quot;:100}"></path><path d="M163.62876,357.48868c-2.63576,0 -5.03191,-0.445 -7.18844,-1.335c-2.15653,-0.89 -3.9622,-2.16509 -5.41701,-3.82528c-1.4548,-1.66019 -2.51596,-3.67124 -3.18345,-6.03316c-0.6675,-2.36192 -0.81298,-5.03191 -0.43644,-8.00998c0.34231,-2.87538 1.12961,-5.50258 2.36192,-7.88162c1.2323,-2.37903 2.7898,-4.42432 4.67249,-6.13585c1.88269,-1.71153 4.01355,-3.03797 6.39258,-3.97932c2.37903,-0.94134 4.88643,-1.41202 7.52219,-1.41202c1.43769,0 2.90105,0.14548 4.39009,0.43644c1.48903,0.29096 2.98663,0.7274 4.49278,1.30932l-1.74576,3.33749c-1.43769,-0.47923 -2.76413,-0.82154 -3.97932,-1.02692c-1.21519,-0.20538 -2.42182,-0.30808 -3.61989,-0.30808c-1.78,0 -3.50865,0.32519 -5.18595,0.97557c-1.6773,0.65038 -3.20913,1.62596 -4.59547,2.92672c-1.38634,1.30077 -2.5673,2.93528 -3.54288,4.90355c-0.97557,1.96826 -1.6174,4.25316 -1.92548,6.85469c-0.27385,2.32769 -0.1626,4.44143 0.33375,6.34123c0.49634,1.8998 1.26654,3.53432 2.31057,4.90355c1.04404,1.36923 2.32769,2.42182 3.85095,3.15778c1.52327,0.73596 3.1749,1.10394 4.95489,1.10394c1.19807,0 2.44749,-0.15404 3.74826,-0.46211c1.30077,-0.30808 2.72134,-0.82154 4.26172,-1.54038l0.92423,3.33749c-1.71153,0.85577 -3.34605,1.46336 -4.90355,1.82278c-1.5575,0.35942 -3.05509,0.53913 -4.49278,0.53913z" data-paper-data="{&quot;elementType&quot;:&quot;letter&quot;,&quot;baseline&quot;:74,&quot;baselineProportion&quot;:0.9840425531914894,&quot;fontSize&quot;:100}"></path><path d="M206.86211,335.51258l1.95115,-15.96861h4.87787l-4.5698,37.32856h-4.87787l2.15653,-17.76573h-16.7388c0.47923,-0.99269 1.10394,-1.8399 1.87413,-2.54163c0.77019,-0.70173 1.75432,-1.05259 2.9524,-1.05259h12.37439M185.24543,319.54397h4.87787l-4.5698,37.32856h-4.87787z" data-paper-data="{&quot;elementType&quot;:&quot;letter&quot;,&quot;baseline&quot;:72.7,&quot;baselineProportion&quot;:1,&quot;fontSize&quot;:100}"></path><path d="M224.06303,356.87253h-4.72383l4.5698,-37.32856h4.72383z" data-paper-data="{&quot;elementType&quot;:&quot;letter&quot;,&quot;baseline&quot;:72.7,&quot;baselineProportion&quot;:1,&quot;fontSize&quot;:100}"></path></g><g data-paper-data="{&quot;baselineProportion&quot;:0.9840425531914894,&quot;fontSize&quot;:100,&quot;baseline&quot;:74,&quot;elementType&quot;:&quot;word&quot;}"><path d="M276.70716,319.54397l8.88286,37.32856h-5.23729l-6.77768,-30.08877l-0.15404,-1.48903l-0.56481,1.48903l-7.75325,16.48207l-0.71884,1.07827l0.6675,-0.10269h6.93171c1.2323,0 2.13086,0.36798 2.69567,1.10394c0.56481,0.73596 0.96702,1.60028 1.20663,2.59297h-12.9392l-4.15903,8.93421h-4.87787l18.02246,-37.32856z" data-paper-data="{&quot;elementType&quot;:&quot;letter&quot;,&quot;baseline&quot;:72.7,&quot;baselineProportion&quot;:1,&quot;fontSize&quot;:100}"></path><path d="M307.15535,357.48868c-1.16384,0 -2.27634,-0.05135 -3.33749,-0.15404c-1.06115,-0.10269 -2.31057,-0.34231 -3.74826,-0.71884c0.58192,-0.89 1.30932,-1.62596 2.18221,-2.20788c0.87288,-0.58192 1.87413,-0.82154 3.00374,-0.71884c0.54769,0.06846 0.96702,0.10269 1.25798,0.10269c0.29096,0 0.64183,0 1.05259,0c1.64307,0 3.22624,-0.41077 4.74951,-1.2323c1.52327,-0.82154 2.90105,-1.94259 4.13336,-3.36316c1.2323,-1.42057 2.25923,-3.08076 3.08076,-4.98056c0.82154,-1.8998 1.36923,-3.92797 1.64307,-6.0845c0.61615,-4.96345 -0.17115,-8.78873 -2.36192,-11.47584c-2.19076,-2.68711 -5.81922,-4.03066 -10.88536,-4.03066c-1.02692,0 -2.03673,0.03423 -3.02942,0.10269c-0.99269,0.06846 -1.8998,0.15404 -2.72134,0.25673l-4.15903,33.88838h-4.87787l4.4671,-36.76375c0.82154,-0.20538 1.71153,-0.3851 2.66999,-0.53913c0.95846,-0.15404 1.90836,-0.2824 2.8497,-0.3851c0.94134,-0.10269 1.86557,-0.17971 2.77269,-0.23106c0.90711,-0.05135 1.73721,-0.07702 2.49028,-0.07702c3.25192,0 6.09306,0.43644 8.52344,1.30932c2.43038,0.87288 4.4072,2.13942 5.93047,3.79961c1.52327,1.66019 2.59297,3.6798 3.20913,6.05883c0.61615,2.37903 0.73596,5.0747 0.35942,8.087c-0.34231,2.80692 -1.10394,5.39133 -2.2849,7.75325c-1.18096,2.36192 -2.65288,4.4072 -4.41576,6.13585c-1.76288,1.72865 -3.72259,3.0722 -5.87912,4.03066c-2.15653,0.95846 -4.38153,1.43769 -6.67498,1.43769z" data-paper-data="{&quot;elementType&quot;:&quot;letter&quot;,&quot;baseline&quot;:74,&quot;baselineProportion&quot;:0.9840425531914894,&quot;fontSize&quot;:100}"></path><path d="M350.95351,319.54397l8.88286,37.32856h-5.23729l-6.77768,-30.08877l-0.15404,-1.48903l-0.56481,1.48903l-7.75325,16.48207l-0.71884,1.07827l0.6675,-0.10269h6.93171c1.2323,0 2.13086,0.36798 2.69567,1.10394c0.56481,0.73596 0.96702,1.60028 1.20663,2.59297h-12.9392l-4.15903,8.93421h-4.87787l18.02246,-37.32856z" data-paper-data="{&quot;elementType&quot;:&quot;letter&quot;,&quot;baseline&quot;:72.7,&quot;baselineProportion&quot;:1,&quot;fontSize&quot;:100}"></path><path d="M384.99593,357.48868c-2.63576,0 -5.03191,-0.445 -7.18844,-1.335c-2.15653,-0.89 -3.9622,-2.16509 -5.41701,-3.82528c-1.4548,-1.66019 -2.51596,-3.67124 -3.18345,-6.03316c-0.6675,-2.36192 -0.81298,-5.03191 -0.43644,-8.00998c0.34231,-2.87538 1.12961,-5.50258 2.36192,-7.88162c1.2323,-2.37903 2.7898,-4.42432 4.67249,-6.13585c1.88269,-1.71153 4.01355,-3.03797 6.39258,-3.97932c2.37903,-0.94134 4.88643,-1.41202 7.52219,-1.41202c1.43769,0 2.90105,0.14548 4.39009,0.43644c1.48903,0.29096 2.98663,0.7274 4.49278,1.30932l-1.74576,3.33749c-1.43769,-0.47923 -2.76413,-0.82154 -3.97932,-1.02692c-1.21519,-0.20538 -2.42182,-0.30808 -3.61989,-0.30808c-1.78,0 -3.50865,0.32519 -5.18595,0.97557c-1.6773,0.65038 -3.20913,1.62596 -4.59547,2.92672c-1.38634,1.30077 -2.5673,2.93528 -3.54288,4.90355c-0.97557,1.96826 -1.6174,4.25316 -1.92548,6.85469c-0.27385,2.32769 -0.1626,4.44143 0.33375,6.34123c0.49634,1.8998 1.26654,3.53432 2.31057,4.90355c1.04404,1.36923 2.32769,2.42182 3.85095,3.15778c1.52327,0.73596 3.1749,1.10394 4.95489,1.10394c1.19807,0 2.44749,-0.15404 3.74826,-0.46211c1.30077,-0.30808 2.72134,-0.82154 4.26172,-1.54038l0.92423,3.33749c-1.71153,0.85577 -3.34605,1.46336 -4.90355,1.82278c-1.5575,0.35942 -3.05509,0.53913 -4.49278,0.53913z" data-paper-data="{&quot;elementType&quot;:&quot;letter&quot;,&quot;baseline&quot;:74,&quot;baselineProportion&quot;:0.9840425531914894,&quot;fontSize&quot;:100}"></path><path d="M428.22928,335.51258l1.95115,-15.96861h4.87787l-4.5698,37.32856h-4.87787l2.15653,-17.76573h-16.7388c0.47923,-0.99269 1.10394,-1.8399 1.87413,-2.54163c0.77019,-0.70173 1.75432,-1.05259 2.9524,-1.05259h12.37439M406.61261,319.54397h4.87787l-4.5698,37.32856h-4.87787z" data-paper-data="{&quot;elementType&quot;:&quot;letter&quot;,&quot;baseline&quot;:72.7,&quot;baselineProportion&quot;:1,&quot;fontSize&quot;:100}"></path><path d="M445.4302,356.87253h-4.72383l4.5698,-37.32856h4.72383z" data-paper-data="{&quot;elementType&quot;:&quot;letter&quot;,&quot;baseline&quot;:72.7,&quot;baselineProportion&quot;:1,&quot;fontSize&quot;:100}"></path></g></g></g></g><g data-paper-data="{&quot;elementType&quot;:&quot;emblem&quot;}"><g data-paper-data="{&quot;baselineProportion&quot;:0.9797843665768194,&quot;fontSize&quot;:100,&quot;baseline&quot;:72.7,&quot;elementType&quot;:&quot;word&quot;}"><path d="M149.76832,193.29711l35.58461,74.79677h-19.86519l-26.2566,-59.94106l-0.8637,-3.10933l-1.90015,3.10933l-15.89215,17.96504c-0.5758,-1.72741 -0.80612,-3.77151 -0.69096,-6.1323c0.11516,-2.36079 0.51822,-4.86553 1.20919,-7.51422c0.69096,-2.64869 1.72741,-5.29738 3.10933,-7.94608c1.38193,-2.64869 3.10933,-5.18222 5.18222,-7.6006l46.9855,-54.41335h18.65601l-45.25809,50.7858M90,268.09388l15.37393,-125.58256h16.41038l-15.37393,125.58256z" data-paper-data="{&quot;elementType&quot;:&quot;letter&quot;,&quot;baseline&quot;:72.7,&quot;baselineProportion&quot;:1,&quot;fontSize&quot;:100}"></path><path d="M209.70938,260.49328c0.34548,-2.99417 1.58346,-5.49892 3.71393,-7.51422c2.13047,-2.01531 4.69279,-3.02296 7.68697,-3.02296c2.99417,0 5.38375,1.00765 7.16874,3.02296c1.78499,2.01531 2.50474,4.52005 2.15926,7.51422c-0.34548,2.99417 -1.64104,5.44134 -3.88667,7.34148c-2.24563,1.90015 -4.86553,2.85022 -7.85971,2.85022c-2.99417,0 -5.32617,-0.95007 -6.996,-2.85022c-1.66983,-1.90015 -2.332,-4.34731 -1.98652,-7.34148z" data-paper-data="{&quot;elementType&quot;:&quot;letter&quot;,&quot;baseline&quot;:10.5,&quot;baselineProportion&quot;:0.875,&quot;fontSize&quot;:100}"></path><path d="M332.35534,142.51132l29.88416,125.58256h-17.61956l-22.80179,-101.22611l-0.51822,-5.00948l-1.90015,5.00948l-26.08386,55.4498l-2.41837,3.62756l2.24563,-0.34548h23.32001c4.14578,0 7.16874,1.23798 9.06889,3.71393c1.90015,2.47595 3.25329,5.38375 4.05941,8.72341h-43.53068l-13.992,30.0569h-16.41038l60.63202,-125.58256z" data-paper-data="{&quot;elementType&quot;:&quot;letter&quot;,&quot;baseline&quot;:72.7,&quot;baselineProportion&quot;:1,&quot;fontSize&quot;:100}"></path><path d="M389.18707,260.49328c0.34548,-2.99417 1.58346,-5.49892 3.71393,-7.51422c2.13047,-2.01531 4.69279,-3.02296 7.68697,-3.02296c2.99417,0 5.38375,1.00765 7.16874,3.02296c1.78499,2.01531 2.50474,4.52005 2.15926,7.51422c-0.34548,2.99417 -1.64104,5.44134 -3.88667,7.34148c-2.24563,1.90015 -4.86553,2.85022 -7.85971,2.85022c-2.99417,0 -5.32617,-0.95007 -6.996,-2.85022c-1.66983,-1.90015 -2.332,-4.34731 -1.98652,-7.34148z" data-paper-data="{&quot;elementType&quot;:&quot;letter&quot;,&quot;baseline&quot;:10.5,&quot;baselineProportion&quot;:0.875,&quot;fontSize&quot;:100}"></path></g></g></g></svg>